STARTFONT 2.1
COMMENT  
COMMENT  Copyright (c) 1984, 1987 Adobe Systems Incorporated. All Rights Reserved. Copyright (c) 1988, 1991 Digital Equipment Corporation. All Rights Reserved.
COMMENT  
COMMENT  WARNING:  This bdf file was generated from a font server using
COMMENT  fstobdf.  The resulting font is subject to the same copyright,
COMMENT  license, and trademark restrictions as the original font.  The
COMMENT  authors and distributors of fstobdf disclaim all liability for
COMMENT  misuse of the program or its output.
COMMENT  
FONT -Adobe-Helvetica-Medium-R-Normal--18-180-75-75-P-98-ISO8859-1
SIZE 18 75 75
FONTBOUNDINGBOX 18 22 -1 -4
STARTPROPERTIES 32
FOUNDRY "Adobe"
FAMILY_NAME "Helvetica"
WEIGHT_NAME "Medium"
SLANT "R"
SETWIDTH_NAME "Normal"
ADD_STYLE_NAME ""
PIXEL_SIZE 18
POINT_SIZE 180
RESOLUTION_X 75
RESOLUTION_Y 75
SPACING "P"
AVERAGE_WIDTH 98
CHARSET_REGISTRY "ISO8859"
CHARSET_ENCODING "1"
CAP_HEIGHT 14
X_HEIGHT 10
FACE_NAME "Helvetica"
COPYRIGHT "Copyright (c) 1984, 1987 Adobe Systems Incorporated. All Rights Reserved. Copyright (c) 1988, 1991 Digital Equipment Corporation. All Rights Reserved."
NOTICE "Helvetica is a trademark of Linotype-Hell AG and/or its subsidiaries.  "
_DEC_DEVICE_FONTNAMES "PS=Helvetica"
_DEC_PRODUCTINFO "DECwindows Fonts V2.2, 11-Nov-1991"
RELATIVE_SETWIDTH 50
RELATIVE_WEIGHT 50
CHARSET_COLLECTIONS "ASCII ISO8859-1 ADOBE-STANDARD"
FULL_NAME "Helvetica"
FONT "-Adobe-Helvetica-Medium-R-Normal--18-180-75-75-P-98-ISO8859-1"
WEIGHT 10
RESOLUTION 103
QUAD_WIDTH 11
DEFAULT_CHAR 32
FONT_ASCENT 16
FONT_DESCENT 5
ENDPROPERTIES
CHARS 191
STARTCHAR space
ENCODING 32
SWIDTH 266 0
DWIDTH 5 0
BBX 1 1 0 0
BITMAP
00
ENDCHAR
STARTCHAR exclam
ENCODING 33
SWIDTH 320 0
DWIDTH 6 0
BBX 2 14 2 0
BITMAP
c0
c0
c0
c0
c0
c0
c0
c0
80
80
00
00
c0
c0
ENDCHAR
STARTCHAR quotedbl
ENCODING 34
SWIDTH 266 0
DWIDTH 5 0
BBX 5 5 0 9
BITMAP
d8
d8
d8
90
90
ENDCHAR
STARTCHAR numbersign
ENCODING 35
SWIDTH 533 0
DWIDTH 10 0
BBX 10 13 0 0
BITMAP
0900
0900
0900
7fc0
7fc0
1200
1200
1200
ff80
ff80
2400
2400
2400
ENDCHAR
STARTCHAR dollar
ENCODING 36
SWIDTH 533 0
DWIDTH 10 0
BBX 9 16 1 -2
BITMAP
0800
3e00
7f00
cb00
c800
e800
7800
3e00
0f00
0980
c980
eb80
7f00
3e00
0800
0800
ENDCHAR
STARTCHAR percent
ENCODING 37
SWIDTH 853 0
DWIDTH 16 0
BBX 14 13 1 0
BITMAP
7860
fcc0
ccc0
cd80
fd80
7b00
0300
0678
06fc
0ccc
0ccc
18fc
1878
ENDCHAR
STARTCHAR ampersand
ENCODING 38
SWIDTH 693 0
DWIDTH 13 0
BBX 12 13 1 0
BITMAP
3c00
7e00
6600
6600
3c00
7c00
eec0
c6c0
c3c0
c380
e7c0
7ee0
3c70
ENDCHAR
STARTCHAR apostrophe
ENCODING 39
SWIDTH 213 0
DWIDTH 4 0
BBX 2 5 1 9
BITMAP
c0
c0
40
40
80
ENDCHAR
STARTCHAR parenleft
ENCODING 40
SWIDTH 320 0
DWIDTH 6 0
BBX 4 18 1 -4
BITMAP
10
30
60
60
c0
c0
c0
c0
c0
c0
c0
c0
c0
c0
60
60
30
10
ENDCHAR
STARTCHAR parenright
ENCODING 41
SWIDTH 320 0
DWIDTH 6 0
BBX 4 18 1 -4
BITMAP
80
c0
60
60
30
30
30
30
30
30
30
30
30
30
60
60
c0
80
ENDCHAR
STARTCHAR asterisk
ENCODING 42
SWIDTH 373 0
DWIDTH 7 0
BBX 5 6 1 8
BITMAP
20
20
f8
70
70
88
ENDCHAR
STARTCHAR plus
ENCODING 43
SWIDTH 533 0
DWIDTH 10 0
BBX 8 10 1 0
BITMAP
18
18
18
18
ff
ff
18
18
18
18
ENDCHAR
STARTCHAR comma
ENCODING 44
SWIDTH 266 0
DWIDTH 5 0
BBX 2 5 1 -3
BITMAP
c0
c0
40
40
80
ENDCHAR
STARTCHAR minus
ENCODING 45
SWIDTH 586 0
DWIDTH 11 0
BBX 8 2 1 4
BITMAP
ff
ff
ENDCHAR
STARTCHAR period
ENCODING 46
SWIDTH 266 0
DWIDTH 5 0
BBX 2 2 1 0
BITMAP
c0
c0
ENDCHAR
STARTCHAR slash
ENCODING 47
SWIDTH 266 0
DWIDTH 5 0
BBX 5 14 0 0
BITMAP
18
18
10
10
30
30
20
20
60
60
40
40
c0
c0
ENDCHAR
STARTCHAR 0
ENCODING 48
SWIDTH 533 0
DWIDTH 10 0
BBX 8 13 1 0
BITMAP
3c
7e
66
c3
c3
c3
c3
c3
c3
c3
66
7e
3c
ENDCHAR
STARTCHAR 1
ENCODING 49
SWIDTH 533 0
DWIDTH 10 0
BBX 5 13 2 0
BITMAP
18
f8
f8
18
18
18
18
18
18
18
18
18
18
ENDCHAR
STARTCHAR 2
ENCODING 50
SWIDTH 533 0
DWIDTH 10 0
BBX 8 13 1 0
BITMAP
3c
fe
c3
03
07
0e
1c
38
70
e0
c0
ff
ff
ENDCHAR
STARTCHAR 3
ENCODING 51
SWIDTH 533 0
DWIDTH 10 0
BBX 8 13 1 0
BITMAP
3c
7e
c3
c3
06
1c
1e
07
03
c3
c7
7e
3c
ENDCHAR
STARTCHAR 4
ENCODING 52
SWIDTH 533 0
DWIDTH 10 0
BBX 9 13 1 0
BITMAP
0300
0700
0f00
1b00
3300
3300
6300
c300
ff80
ff80
0300
0300
0300
ENDCHAR
STARTCHAR 5
ENCODING 53
SWIDTH 533 0
DWIDTH 10 0
BBX 8 13 1 0
BITMAP
fe
fe
c0
c0
fc
fe
c7
03
03
c3
c7
fe
7c
ENDCHAR
STARTCHAR 6
ENCODING 54
SWIDTH 533 0
DWIDTH 10 0
BBX 8 13 1 0
BITMAP
3c
7f
63
c0
c0
dc
fe
c3
c3
c3
e3
7e
3c
ENDCHAR
STARTCHAR 7
ENCODING 55
SWIDTH 533 0
DWIDTH 10 0
BBX 8 13 1 0
BITMAP
ff
ff
03
06
0c
0c
18
18
30
30
30
60
60
ENDCHAR
STARTCHAR 8
ENCODING 56
SWIDTH 533 0
DWIDTH 10 0
BBX 8 13 1 0
BITMAP
3c
7e
e7
c3
c3
66
7e
66
c3
c3
e7
7e
3c
ENDCHAR
STARTCHAR 9
ENCODING 57
SWIDTH 533 0
DWIDTH 10 0
BBX 8 13 1 0
BITMAP
3c
7e
c7
c3
c3
c3
7f
3b
03
03
c6
fe
7c
ENDCHAR
STARTCHAR colon
ENCODING 58
SWIDTH 266 0
DWIDTH 5 0
BBX 2 10 1 0
BITMAP
c0
c0
00
00
00
00
00
00
c0
c0
ENDCHAR
STARTCHAR semicolon
ENCODING 59
SWIDTH 266 0
DWIDTH 5 0
BBX 2 13 1 -3
BITMAP
c0
c0
00
00
00
00
00
00
c0
c0
40
40
80
ENDCHAR
STARTCHAR less
ENCODING 60
SWIDTH 533 0
DWIDTH 10 0
BBX 8 9 1 0
BITMAP
03
0f
3c
70
c0
70
3c
0f
03
ENDCHAR
STARTCHAR equal
ENCODING 61
SWIDTH 586 0
DWIDTH 11 0
BBX 7 6 2 2
BITMAP
fe
fe
00
00
fe
fe
ENDCHAR
STARTCHAR greater
ENCODING 62
SWIDTH 533 0
DWIDTH 10 0
BBX 8 9 1 0
BITMAP
c0
f0
3c
0e
03
0e
3c
f0
c0
ENDCHAR
STARTCHAR question
ENCODING 63
SWIDTH 533 0
DWIDTH 10 0
BBX 7 14 1 0
BITMAP
7c
fe
c6
c6
0e
1c
38
30
30
30
00
00
30
30
ENDCHAR
STARTCHAR at
ENCODING 64
SWIDTH 960 0
DWIDTH 18 0
BBX 16 17 1 -3
BITMAP
03f0
0ffc
1c0e
3006
63b3
6773
c633
cc63
cc66
cc66
cccc
cff8
6770
7000
3800
1ff0
07e0
ENDCHAR
STARTCHAR A
ENCODING 65
SWIDTH 640 0
DWIDTH 12 0
BBX 12 14 0 0
BITMAP
0600
0600
0f00
0f00
1980
1980
30c0
30c0
3fc0
7fe0
6060
6060
c030
c030
ENDCHAR
STARTCHAR B
ENCODING 66
SWIDTH 693 0
DWIDTH 13 0
BBX 11 14 1 0
BITMAP
ff00
ff80
c1c0
c0c0
c0c0
c180
ff80
ffc0
c0e0
c060
c060
c0e0
ffc0
ff80
ENDCHAR
STARTCHAR C
ENCODING 67
SWIDTH 746 0
DWIDTH 14 0
BBX 12 14 1 0
BITMAP
0f80
3fe0
7070
6030
e000
c000
c000
c000
c000
e000
6030
7070
3fe0
0f80
ENDCHAR
STARTCHAR D
ENCODING 68
SWIDTH 693 0
DWIDTH 13 0
BBX 11 14 1 0
BITMAP
ff00
ff80
c1c0
c0c0
c060
c060
c060
c060
c060
c060
c0c0
c1c0
ff80
ff00
ENDCHAR
STARTCHAR E
ENCODING 69
SWIDTH 586 0
DWIDTH 11 0
BBX 9 14 1 0
BITMAP
ff80
ff80
c000
c000
c000
c000
ff00
ff00
c000
c000
c000
c000
ff80
ff80
ENDCHAR
STARTCHAR F
ENCODING 70
SWIDTH 586 0
DWIDTH 11 0
BBX 9 14 1 0
BITMAP
ff80
ff80
c000
c000
c000
c000
ff00
ff00
c000
c000
c000
c000
c000
c000
ENDCHAR
STARTCHAR G
ENCODING 71
SWIDTH 746 0
DWIDTH 14 0
BBX 12 14 1 0
BITMAP
0f80
3fe0
7070
6030
e030
c000
c000
c1f0
c1f0
e030
6030
7070
3ff0
0fb0
ENDCHAR
STARTCHAR H
ENCODING 72
SWIDTH 693 0
DWIDTH 13 0
BBX 11 14 1 0
BITMAP
c060
c060
c060
c060
c060
c060
ffe0
ffe0
c060
c060
c060
c060
c060
c060
ENDCHAR
STARTCHAR I
ENCODING 73
SWIDTH 320 0
DWIDTH 6 0
BBX 2 14 2 0
BITMAP
c0
c0
c0
c0
c0
c0
c0
c0
c0
c0
c0
c0
c0
c0
ENDCHAR
STARTCHAR J
ENCODING 74
SWIDTH 533 0
DWIDTH 10 0
BBX 8 14 1 0
BITMAP
03
03
03
03
03
03
03
03
03
c3
c3
e7
7e
3c
ENDCHAR
STARTCHAR K
ENCODING 75
SWIDTH 693 0
DWIDTH 13 0
BBX 12 14 1 0
BITMAP
c0e0
c1c0
c380
c700
ce00
dc00
f800
fc00
ce00
c700
c380
c1c0
c0e0
c070
ENDCHAR
STARTCHAR L
ENCODING 76
SWIDTH 533 0
DWIDTH 10 0
BBX 8 14 1 0
BITMAP
c0
c0
c0
c0
c0
c0
c0
c0
c0
c0
c0
c0
ff
ff
ENDCHAR
STARTCHAR M
ENCODING 77
SWIDTH 853 0
DWIDTH 16 0
BBX 14 14 1 0
BITMAP
c00c
c00c
e01c
e01c
f03c
f03c
d86c
d86c
cccc
cccc
c48c
c78c
c30c
c30c
ENDCHAR
STARTCHAR N
ENCODING 78
SWIDTH 693 0
DWIDTH 13 0
BBX 11 14 1 0
BITMAP
c060
e060
f060
f060
d860
cc60
cc60
c660
c660
c360
c1e0
c1e0
c0e0
c060
ENDCHAR
STARTCHAR O
ENCODING 79
SWIDTH 800 0
DWIDTH 15 0
BBX 13 14 1 0
BITMAP
0f80
3fe0
7070
6030
e038
c018
c018
c018
c018
e038
6030
7070
3fe0
0f80
ENDCHAR
STARTCHAR P
ENCODING 80
SWIDTH 640 0
DWIDTH 12 0
BBX 10 14 1 0
BITMAP
ff00
ff80
c1c0
c0c0
c0c0
c1c0
ff80
ff00
c000
c000
c000
c000
c000
c000
ENDCHAR
STARTCHAR Q
ENCODING 81
SWIDTH 800 0
DWIDTH 15 0
BBX 13 15 1 -1
BITMAP
0f80
3fe0
7070
6030
e038
c018
c018
c018
c018
e1b8
61b0
70f0
3fe0
0fb0
0030
ENDCHAR
STARTCHAR R
ENCODING 82
SWIDTH 640 0
DWIDTH 12 0
BBX 10 14 1 0
BITMAP
ff00
ff80
c1c0
c0c0
c0c0
c1c0
ff80
ff00
c180
c180
c0c0
c0c0
c0c0
c0c0
ENDCHAR
STARTCHAR S
ENCODING 83
SWIDTH 693 0
DWIDTH 13 0
BBX 11 14 1 0
BITMAP
1f00
7fc0
e0e0
c060
e000
7c00
1f00
03c0
00e0
0060
c060
e0e0
7fc0
3f00
ENDCHAR
STARTCHAR T
ENCODING 84
SWIDTH 640 0
DWIDTH 12 0
BBX 10 14 1 0
BITMAP
ffc0
ffc0
0c00
0c00
0c00
0c00
0c00
0c00
0c00
0c00
0c00
0c00
0c00
0c00
ENDCHAR
STARTCHAR U
ENCODING 85
SWIDTH 693 0
DWIDTH 13 0
BBX 11 14 1 0
BITMAP
c060
c060
c060
c060
c060
c060
c060
c060
c060
c060
c060
60c0
7fc0
1f00
ENDCHAR
STARTCHAR V
ENCODING 86
SWIDTH 746 0
DWIDTH 14 0
BBX 12 14 1 0
BITMAP
c030
c030
6060
6060
6060
30c0
30c0
30c0
1980
1980
1980
0f00
0f00
0600
ENDCHAR
STARTCHAR W
ENCODING 87
SWIDTH 960 0
DWIDTH 18 0
BBX 16 14 1 0
BITMAP
c183
c183
c183
c3c3
63c6
6246
6666
6666
366c
366c
342c
1c38
1818
1818
ENDCHAR
STARTCHAR X
ENCODING 88
SWIDTH 693 0
DWIDTH 13 0
BBX 11 14 1 0
BITMAP
c060
e0e0
60c0
71c0
3180
1b00
0e00
0e00
1b00
3180
71c0
60c0
e0e0
c060
ENDCHAR
STARTCHAR Y
ENCODING 89
SWIDTH 746 0
DWIDTH 14 0
BBX 12 14 1 0
BITMAP
c030
c030
6060
6060
30c0
30c0
1980
0f00
0600
0600
0600
0600
0600
0600
ENDCHAR
STARTCHAR Z
ENCODING 90
SWIDTH 640 0
DWIDTH 12 0
BBX 10 14 1 0
BITMAP
ffc0
ffc0
00c0
0180
0300
0600
0c00
1c00
1800
3000
6000
c000
ffc0
ffc0
ENDCHAR
STARTCHAR bracketleft
ENCODING 91
SWIDTH 266 0
DWIDTH 5 0
BBX 4 18 1 -4
BITMAP
f0
f0
c0
c0
c0
c0
c0
c0
c0
c0
c0
c0
c0
c0
c0
c0
f0
f0
ENDCHAR
STARTCHAR backslash
ENCODING 92
SWIDTH 266 0
DWIDTH 5 0
BBX 5 14 0 0
BITMAP
c0
c0
40
40
60
60
20
20
30
30
10
10
18
18
ENDCHAR
STARTCHAR bracketright
ENCODING 93
SWIDTH 266 0
DWIDTH 5 0
BBX 4 18 0 -4
BITMAP
f0
f0
30
30
30
30
30
30
30
30
30
30
30
30
30
30
f0
f0
ENDCHAR
STARTCHAR asciicircum
ENCODING 94
SWIDTH 480 0
DWIDTH 9 0
BBX 7 5 1 8
BITMAP
10
38
6c
c6
82
ENDCHAR
STARTCHAR underscore
ENCODING 95
SWIDTH 533 0
DWIDTH 10 0
BBX 10 2 0 -4
BITMAP
ffc0
ffc0
ENDCHAR
STARTCHAR grave
ENCODING 96
SWIDTH 213 0
DWIDTH 4 0
BBX 2 5 1 9
BITMAP
40
80
80
c0
c0
ENDCHAR
STARTCHAR a
ENCODING 97
SWIDTH 480 0
DWIDTH 9 0
BBX 7 10 1 0
BITMAP
7c
ee
c6
0e
7e
e6
c6
c6
ee
76
ENDCHAR
STARTCHAR b
ENCODING 98
SWIDTH 586 0
DWIDTH 11 0
BBX 9 14 1 0
BITMAP
c000
c000
c000
c000
de00
ff00
e300
c180
c180
c180
c180
e300
ff00
de00
ENDCHAR
STARTCHAR c
ENCODING 99
SWIDTH 533 0
DWIDTH 10 0
BBX 8 10 1 0
BITMAP
3e
7f
63
c0
c0
c0
c0
63
7f
3e
ENDCHAR
STARTCHAR d
ENCODING 100
SWIDTH 586 0
DWIDTH 11 0
BBX 9 14 1 0
BITMAP
0180
0180
0180
0180
3d80
7f80
6380
c180
c180
c180
c180
6380
7f80
3d80
ENDCHAR
STARTCHAR e
ENCODING 101
SWIDTH 533 0
DWIDTH 10 0
BBX 8 10 1 0
BITMAP
3c
7e
c3
c3
ff
c0
c0
e3
7f
3c
ENDCHAR
STARTCHAR f
ENCODING 102
SWIDTH 320 0
DWIDTH 6 0
BBX 6 14 0 0
BITMAP
1c
3c
30
30
fc
fc
30
30
30
30
30
30
30
30
ENDCHAR
STARTCHAR g
ENCODING 103
SWIDTH 586 0
DWIDTH 11 0
BBX 9 14 1 -4
BITMAP
3d80
7f80
6180
c180
c180
c180
c180
6380
7f80
3d80
0180
6300
7f00
1c00
ENDCHAR
STARTCHAR h
ENCODING 104
SWIDTH 533 0
DWIDTH 10 0
BBX 8 14 1 0
BITMAP
c0
c0
c0
c0
ce
df
e3
c3
c3
c3
c3
c3
c3
c3
ENDCHAR
STARTCHAR i
ENCODING 105
SWIDTH 213 0
DWIDTH 4 0
BBX 2 14 1 0
BITMAP
c0
c0
00
00
c0
c0
c0
c0
c0
c0
c0
c0
c0
c0
ENDCHAR
STARTCHAR j
ENCODING 106
SWIDTH 213 0
DWIDTH 4 0
BBX 4 18 -1 -4
BITMAP
30
30
00
00
30
30
30
30
30
30
30
30
30
30
30
30
f0
e0
ENDCHAR
STARTCHAR k
ENCODING 107
SWIDTH 480 0
DWIDTH 9 0
BBX 8 14 1 0
BITMAP
c0
c0
c0
c0
c6
cc
d8
f0
f8
d8
cc
ce
c6
c7
ENDCHAR
STARTCHAR l
ENCODING 108
SWIDTH 213 0
DWIDTH 4 0
BBX 2 14 1 0
BITMAP
c0
c0
c0
c0
c0
c0
c0
c0
c0
c0
c0
c0
c0
c0
ENDCHAR
STARTCHAR m
ENCODING 109
SWIDTH 746 0
DWIDTH 14 0
BBX 12 10 1 0
BITMAP
cc60
def0
e730
c630
c630
c630
c630
c630
c630
c630
ENDCHAR
STARTCHAR n
ENCODING 110
SWIDTH 533 0
DWIDTH 10 0
BBX 8 10 1 0
BITMAP
ce
df
e3
c3
c3
c3
c3
c3
c3
c3
ENDCHAR
STARTCHAR o
ENCODING 111
SWIDTH 586 0
DWIDTH 11 0
BBX 9 10 1 0
BITMAP
3e00
7f00
6300
c180
c180
c180
c180
6300
7f00
3e00
ENDCHAR
STARTCHAR p
ENCODING 112
SWIDTH 586 0
DWIDTH 11 0
BBX 9 14 1 -4
BITMAP
de00
ff00
e300
c180
c180
c180
c180
e300
ff00
de00
c000
c000
c000
c000
ENDCHAR
STARTCHAR q
ENCODING 113
SWIDTH 586 0
DWIDTH 11 0
BBX 9 14 1 -4
BITMAP
3d80
7f80
6380
c180
c180
c180
c180
6380
7f80
3d80
0180
0180
0180
0180
ENDCHAR
STARTCHAR r
ENCODING 114
SWIDTH 320 0
DWIDTH 6 0
BBX 5 10 1 0
BITMAP
d8
d8
e0
c0
c0
c0
c0
c0
c0
c0
ENDCHAR
STARTCHAR s
ENCODING 115
SWIDTH 480 0
DWIDTH 9 0
BBX 7 10 1 0
BITMAP
3c
7e
c6
c0
fc
3e
06
c6
fc
78
ENDCHAR
STARTCHAR t
ENCODING 116
SWIDTH 320 0
DWIDTH 6 0
BBX 6 13 0 0
BITMAP
30
30
30
fc
fc
30
30
30
30
30
30
38
18
ENDCHAR
STARTCHAR u
ENCODING 117
SWIDTH 533 0
DWIDTH 10 0
BBX 8 10 1 0
BITMAP
c3
c3
c3
c3
c3
c3
c3
c7
fb
73
ENDCHAR
STARTCHAR v
ENCODING 118
SWIDTH 533 0
DWIDTH 10 0
BBX 8 10 1 0
BITMAP
c3
c3
c3
66
66
66
24
3c
18
18
ENDCHAR
STARTCHAR w
ENCODING 119
SWIDTH 746 0
DWIDTH 14 0
BBX 12 10 1 0
BITMAP
c630
c630
c630
6660
6660
6960
2940
39c0
1980
1980
ENDCHAR
STARTCHAR x
ENCODING 120
SWIDTH 533 0
DWIDTH 10 0
BBX 8 10 1 0
BITMAP
c3
e7
66
3c
18
18
3c
66
e7
c3
ENDCHAR
STARTCHAR y
ENCODING 121
SWIDTH 533 0
DWIDTH 10 0
BBX 8 14 1 -4
BITMAP
c3
c3
c3
66
66
66
24
3c
18
18
18
18
70
70
ENDCHAR
STARTCHAR z
ENCODING 122
SWIDTH 480 0
DWIDTH 9 0
BBX 7 10 1 0
BITMAP
fe
fe
06
0c
18
30
60
c0
fe
fe
ENDCHAR
STARTCHAR braceleft
ENCODING 123
SWIDTH 320 0
DWIDTH 6 0
BBX 6 18 0 -4
BITMAP
0c
18
30
30
30
30
30
60
c0
60
30
30
30
30
30
30
18
0c
ENDCHAR
STARTCHAR bar
ENCODING 124
SWIDTH 213 0
DWIDTH 4 0
BBX 2 18 1 -4
BITMAP
c0
c0
c0
c0
c0
c0
c0
c0
c0
c0
c0
c0
c0
c0
c0
c0
c0
c0
ENDCHAR
STARTCHAR braceright
ENCODING 125
SWIDTH 320 0
DWIDTH 6 0
BBX 6 18 0 -4
BITMAP
c0
60
30
30
30
30
30
18
0c
18
30
30
30
30
30
30
60
c0
ENDCHAR
STARTCHAR asciitilde
ENCODING 126
SWIDTH 533 0
DWIDTH 10 0
BBX 8 3 1 4
BITMAP
33
7e
cc
ENDCHAR
STARTCHAR nobreakspace
ENCODING 160
SWIDTH 266 0
DWIDTH 5 0
BBX 1 1 0 0
BITMAP
00
ENDCHAR
STARTCHAR exclamdown
ENCODING 161
SWIDTH 320 0
DWIDTH 6 0
BBX 2 14 2 -4
BITMAP
00
00
00
00
00
00
00
00
00
00
00
00
00
00
ENDCHAR
STARTCHAR cent
ENCODING 162
SWIDTH 533 0
DWIDTH 10 0
BBX 8 14 1 -2
BITMAP
00
00
00
00
00
00
00
00
00
00
00
00
00
00
ENDCHAR
STARTCHAR sterling
ENCODING 163
SWIDTH 533 0
DWIDTH 10 0
BBX 9 13 0 0
BITMAP
0000
0000
0080
c000
0000
4080
c080
c080
c080
c000
0400
7f00
c880
ENDCHAR
STARTCHAR currency
ENCODING 164
SWIDTH 533 0
DWIDTH 10 0
BBX 8 7 1 3
BITMAP
c8
c8
6b
7f
3e
10
10
ENDCHAR
STARTCHAR yen
ENCODING 165
SWIDTH 533 0
DWIDTH 10 0
BBX 8 13 1 0
BITMAP
1e
00
3f
00
61
80
61
80
60
00
30
00
7e
ENDCHAR
STARTCHAR brokenbar
ENCODING 166
SWIDTH 213 0
DWIDTH 4 0
BBX 2 17 1 -3
BITMAP
00
00
00
00
00
00
00
40
80
c0
80
c0
00
c0
c0
40
40
ENDCHAR
STARTCHAR section
ENCODING 167
SWIDTH 533 0
DWIDTH 10 0
BBX 8 18 1 -4
BITMAP
66
ff
c3
c3
c3
66
66
66
3c
ff
18
ff
18
18
18
18
c0
c0
ENDCHAR
STARTCHAR diaeresis
ENCODING 168
SWIDTH 320 0
DWIDTH 6 0
BBX 5 2 0 11
BITMAP
c0
c0
ENDCHAR
STARTCHAR copyright
ENCODING 169
SWIDTH 800 0
DWIDTH 15 0
BBX 13 13 1 0
BITMAP
c0c0
c000
0000
00c0
c0c0
c0c0
c038
7ec0
c3f0
7c68
c7c0
e370
3e08
ENDCHAR
STARTCHAR ordfeminine
ENCODING 170
SWIDTH 373 0
DWIDTH 7 0
BBX 5 8 1 6
BITMAP
00
c0
c0
78
38
d8
d8
08
ENDCHAR
STARTCHAR guillemotleft
ENCODING 171
SWIDTH 480 0
DWIDTH 9 0
BBX 7 8 1 1
BITMAP
80
30
60
40
10
46
10
88
ENDCHAR
STARTCHAR notsign
ENCODING 172
SWIDTH 586 0
DWIDTH 11 0
BBX 9 5 1 3
BITMAP
8880
0880
0880
0880
8800
ENDCHAR
STARTCHAR hyphen
ENCODING 173
SWIDTH 373 0
DWIDTH 7 0
BBX 5 2 1 4
BITMAP
10
40
ENDCHAR
STARTCHAR registered
ENCODING 174
SWIDTH 746 0
DWIDTH 14 0
BBX 13 13 1 0
BITMAP
1030
6008
8070
c838
48d8
6800
f810
3668
d8d8
6c30
12f8
80f8
8000
ENDCHAR
STARTCHAR macron
ENCODING 175
SWIDTH 266 0
DWIDTH 5 0
BBX 5 1 0 12
BITMAP
80
ENDCHAR
STARTCHAR degree
ENCODING 176
SWIDTH 373 0
DWIDTH 7 0
BBX 5 5 1 8
BITMAP
00
80
00
80
f8
ENDCHAR
STARTCHAR plusminus
ENCODING 177
SWIDTH 533 0
DWIDTH 10 0
BBX 8 11 1 0
BITMAP
f8
0f
80
30
60
40
10
4f
90
88
48
ENDCHAR
STARTCHAR twosuperior
ENCODING 178
SWIDTH 320 0
DWIDTH 6 0
BBX 5 8 0 5
BITMAP
88
48
88
88
88
08
88
88
ENDCHAR
STARTCHAR threesuperior
ENCODING 179
SWIDTH 320 0
DWIDTH 6 0
BBX 5 8 0 5
BITMAP
48
50
40
10
30
60
08
80
ENDCHAR
STARTCHAR acute
ENCODING 180
SWIDTH 213 0
DWIDTH 4 0
BBX 4 3 0 11
BITMAP
f0
70
d0
ENDCHAR
STARTCHAR mu
ENCODING 181
SWIDTH 533 0
DWIDTH 10 0
BBX 8 14 1 -4
BITMAP
88
d8
70
18
18
18
ff
ff
18
18
18
00
ff
ff
ENDCHAR
STARTCHAR paragraph
ENCODING 182
SWIDTH 533 0
DWIDTH 10 0
BBX 8 18 1 -4
BITMAP
70
f8
98
18
30
60
f8
f8
70
f8
98
30
30
98
f8
70
30
60
ENDCHAR
STARTCHAR periodcentered
ENCODING 183
SWIDTH 213 0
DWIDTH 4 0
BBX 2 2 1 4
BITMAP
c0
c0
ENDCHAR
STARTCHAR cedilla
ENCODING 184
SWIDTH 266 0
DWIDTH 5 0
BBX 5 5 0 -4
BITMAP
c0
c0
c0
c0
c0
ENDCHAR
STARTCHAR onesuperior
ENCODING 185
SWIDTH 320 0
DWIDTH 6 0
BBX 3 8 1 5
BITMAP
c0
e0
e0
c0
c0
c0
c0
c0
ENDCHAR
STARTCHAR masculine
ENCODING 186
SWIDTH 373 0
DWIDTH 7 0
BBX 5 8 1 6
BITMAP
38
70
f0
f0
f0
f0
70
30
ENDCHAR
STARTCHAR guillemotright
ENCODING 187
SWIDTH 480 0
DWIDTH 9 0
BBX 7 8 1 1
BITMAP
12
12
12
12
12
12
12
12
ENDCHAR
STARTCHAR onequarter
ENCODING 188
SWIDTH 800 0
DWIDTH 15 0
BBX 13 13 1 0
BITMAP
1210
c0c0
6070
18d8
f060
e0e0
6060
6060
6070
d888
88d8
7000
f890
ENDCHAR
STARTCHAR onehalf
ENCODING 189
SWIDTH 800 0
DWIDTH 15 0
BBX 13 13 1 0
BITMAP
d868
3630
6cd8
9060
60e0
60e0
c060
8060
8060
1060
3060
7008
f008
ENDCHAR
STARTCHAR threequarters
ENCODING 190
SWIDTH 800 0
DWIDTH 15 0
BBX 14 13 0 0
BITMAP
b018
f830
3030
3060
60e0
60e0
c060
8060
8060
7060
f864
980c
180c
ENDCHAR
STARTCHAR questiondown
ENCODING 191
SWIDTH 533 0
DWIDTH 10 0
BBX 7 14 1 -4
BITMAP
30
18
60
30
f8
30
f8
70
30
f8
30
98
60
30
ENDCHAR
STARTCHAR Agrave
ENCODING 192
SWIDTH 640 0
DWIDTH 12 0
BBX 12 18 0 0
BITMAP
c030
c090
88f0
1870
3800
7800
d800
fc10
1810
1810
1800
0010
1810
3870
e0c0
c6f0
7c10
0000
ENDCHAR
STARTCHAR Aacute
ENCODING 193
SWIDTH 640 0
DWIDTH 12 0
BBX 12 18 0 0
BITMAP
0000
0000
0000
0000
0000
0000
0010
8010
8030
c030
c030
c070
e060
6060
60c0
30c0
3000
8000
ENDCHAR
STARTCHAR Acircumflex
ENCODING 194
SWIDTH 640 0
DWIDTH 12 0
BBX 12 18 0 0
BITMAP
0000
0000
0000
0000
0000
0000
0010
8010
8030
c030
c030
c070
e060
6060
60c0
30c0
3000
0000
ENDCHAR
STARTCHAR Atilde
ENCODING 195
SWIDTH 640 0
DWIDTH 12 0
BBX 12 18 0 0
BITMAP
0010
8000
0000
0000
0000
0000
0010
8010
8030
c030
c030
c070
e060
6060
60c0
30c0
3000
8010
ENDCHAR
STARTCHAR Adiaeresis
ENCODING 196
SWIDTH 640 0
DWIDTH 12 0
BBX 12 17 0 0
BITMAP
8010
0000
0000
0000
0000
0000
0010
8010
8030
c030
c030
c070
e060
6060
60c0
30c0
3010
ENDCHAR
STARTCHAR Aring
ENCODING 197
SWIDTH 640 0
DWIDTH 12 0
BBX 12 18 0 0
BITMAP
8010
8000
0000
0000
0000
0000
0010
8010
8030
c030
c030
c070
e060
6060
60c0
30c0
3000
0010
ENDCHAR
STARTCHAR AE
ENCODING 198
SWIDTH 960 0
DWIDTH 18 0
BBX 16 14 1 0
BITMAP
8019
800f
0006
0006
000f
000f
0019
8019
8030
c030
c03f
c07f
e060
6060
ENDCHAR
STARTCHAR Ccedilla
ENCODING 199
SWIDTH 746 0
DWIDTH 14 0
BBX 12 18 1 -4
BITMAP
60c0
30c0
3000
ff00
ff00
8000
8010
8010
8030
fe30
fe30
8070
8060
8060
80c0
ffc0
ff00
8030
ENDCHAR
STARTCHAR Egrave
ENCODING 200
SWIDTH 586 0
DWIDTH 11 0
BBX 9 18 1 0
BITMAP
e000
7000
3080
0080
0080
0080
0080
0080
0000
3000
7000
e000
8000
0000
0000
0000
0000
0000
ENDCHAR
STARTCHAR Eacute
ENCODING 201
SWIDTH 586 0
DWIDTH 11 0
BBX 9 18 1 0
BITMAP
0000
0000
0080
8080
8080
0080
0080
0080
0080
0080
0080
0080
0080
0080
0080
8080
8000
0000
ENDCHAR
STARTCHAR Ecircumflex
ENCODING 202
SWIDTH 586 0
DWIDTH 11 0
BBX 9 18 1 0
BITMAP
0000
0000
0080
8080
8080
0080
0080
0080
0080
0080
0080
0080
0080
0080
0080
8080
8000
0000
ENDCHAR
STARTCHAR Ediaeresis
ENCODING 203
SWIDTH 586 0
DWIDTH 11 0
BBX 9 17 1 0
BITMAP
0000
0000
0080
8080
8080
0080
0080
0080
0080
0080
0080
0080
0080
0080
0080
8080
8000
ENDCHAR
STARTCHAR Igrave
ENCODING 204
SWIDTH 320 0
DWIDTH 6 0
BBX 4 18 0 0
BITMAP
00
30
00
00
00
f0
80
f0
80
c0
00
c0
00
c0
00
c0
00
f0
ENDCHAR
STARTCHAR Iacute
ENCODING 205
SWIDTH 320 0
DWIDTH 6 0
BBX 4 18 2 0
BITMAP
00
f0
00
c0
00
c0
00
c0
00
c0
00
f0
80
f0
80
c0
60
30
ENDCHAR
STARTCHAR Icircumflex
ENCODING 206
SWIDTH 320 0
DWIDTH 6 0
BBX 6 18 0 0
BITMAP
00
30
30
30
30
30
30
30
30
30
30
30
30
30
30
30
60
c0
ENDCHAR
STARTCHAR Idiaeresis
ENCODING 207
SWIDTH 320 0
DWIDTH 6 0
BBX 6 17 0 0
BITMAP
00
c0
c0
c0
c0
c0
c0
c0
c0
c0
c0
c0
c0
c0
c0
30
78
ENDCHAR
STARTCHAR ETH
ENCODING 208
SWIDTH 693 0
DWIDTH 13 0
BBX 12 14 0 0
BITMAP
cc00
3030
3030
3030
3030
3030
3030
3030
ccc0
0030
3030
3030
3030
3030
ENDCHAR
STARTCHAR Ntilde
ENCODING 209
SWIDTH 693 0
DWIDTH 13 0
BBX 11 18 1 0
BITMAP
3020
3020
3060
8060
c060
e060
6060
3060
30e0
30e0
3060
3060
3060
6060
e060
c060
8000
8000
ENDCHAR
STARTCHAR Ograve
ENCODING 210
SWIDTH 800 0
DWIDTH 15 0
BBX 13 18 1 0
BITMAP
8010
0000
00e0
60e0
60f0
60d8
60d8
60c8
60c8
60c0
60c0
60c0
60c0
e0c0
e0c0
e0c0
6008
0000
ENDCHAR
STARTCHAR Oacute
ENCODING 211
SWIDTH 800 0
DWIDTH 15 0
BBX 13 18 1 0
BITMAP
0000
0000
0008
8038
e070
7060
30e0
38c0
18c0
18c0
18c0
18e0
3860
3070
7038
e008
8000
c000
ENDCHAR
STARTCHAR Ocircumflex
ENCODING 212
SWIDTH 800 0
DWIDTH 15 0
BBX 13 18 1 0
BITMAP
8000
0000
0008
8038
e070
7060
30e0
38c0
18c0
18c0
18c0
18e0
3860
3070
7038
e008
8000
0000
ENDCHAR
STARTCHAR Otilde
ENCODING 213
SWIDTH 800 0
DWIDTH 15 0
BBX 13 18 1 0
BITMAP
8008
c000
0008
8038
e070
7060
30e0
38c0
18c0
18c0
18c0
18e0
3860
3070
7038
e008
8000
4008
ENDCHAR
STARTCHAR Odiaeresis
ENCODING 214
SWIDTH 800 0
DWIDTH 15 0
BBX 13 17 1 0
BITMAP
4008
8000
0008
8038
e070
7060
30e0
38c0
18c0
18c0
18c0
18e0
3860
3070
7038
e008
8008
ENDCHAR
STARTCHAR multiply
ENCODING 215
SWIDTH 533 0
DWIDTH 10 0
BBX 10 9 0 0
BITMAP
8000
8000
0000
8000
e040
7040
30c0
38c0
18c0
ENDCHAR
STARTCHAR Ooblique
ENCODING 216
SWIDTH 800 0
DWIDTH 15 0
BBX 14 14 0 0
BITMAP
18c0
18c0
18e0
3860
3070
703c
e00c
80c0
c060
8030
001c
000c
001c
0030
ENDCHAR
STARTCHAR Ugrave
ENCODING 217
SWIDTH 693 0
DWIDTH 13 0
BBX 11 18 1 0
BITMAP
0060
80c0
c000
cc00
fc20
3820
7860
dc60
cc60
8c60
0c60
0c60
1c20
1860
38e0
f0c0
c000
0000
ENDCHAR
STARTCHAR Uacute
ENCODING 218
SWIDTH 693 0
DWIDTH 13 0
BBX 11 18 1 0
BITMAP
0000
0000
00c0
60c0
60c0
60c0
60c0
60c0
60c0
60c0
60c0
60c0
60c0
6060
c060
c000
0000
0000
ENDCHAR
STARTCHAR Ucircumflex
ENCODING 219
SWIDTH 693 0
DWIDTH 13 0
BBX 11 18 1 0
BITMAP
0000
0000
00c0
60c0
60c0
60c0
60c0
60c0
60c0
60c0
60c0
60c0
60c0
6060
c060
c000
0000
0000
ENDCHAR
STARTCHAR Udiaeresis
ENCODING 220
SWIDTH 693 0
DWIDTH 13 0
BBX 11 17 1 0
BITMAP
0000
8000
00c0
60c0
60c0
60c0
60c0
60c0
60c0
60c0
60c0
60c0
60c0
6060
c060
c000
0000
ENDCHAR
STARTCHAR Yacute
ENCODING 221
SWIDTH 746 0
DWIDTH 14 0
BBX 12 18 1 0
BITMAP
8010
8000
00c0
60c0
60c0
60c0
60c0
60c0
60c0
60c0
60c0
60c0
60c0
6060
c070
c010
0000
8000
ENDCHAR
STARTCHAR THORN
ENCODING 222
SWIDTH 640 0
DWIDTH 12 0
BBX 10 14 1 0
BITMAP
0000
0000
00c0
30c0
3040
6040
6000
c000
c000
8000
0000
0000
0000
0000
ENDCHAR
STARTCHAR ssharp
ENCODING 223
SWIDTH 480 0
DWIDTH 9 0
BBX 7 14 1 0
BITMAP
00
06
00
06
00
c0
00
c0
00
c0
00
fe
00
fe
ENDCHAR
STARTCHAR agrave
ENCODING 224
SWIDTH 480 0
DWIDTH 9 0
BBX 7 14 1 0
BITMAP
80
c0
c0
c0
c0
c0
c0
c0
c0
fe
80
fe
00
c0
ENDCHAR
STARTCHAR aacute
ENCODING 225
SWIDTH 480 0
DWIDTH 9 0
BBX 7 14 1 0
BITMAP
00
c0
00
c0
00
38
7c
c6
c6
c6
c6
dc
dc
c6
ENDCHAR
STARTCHAR acircumflex
ENCODING 226
SWIDTH 480 0
DWIDTH 9 0
BBX 7 14 1 0
BITMAP
c6
c6
c6
de
dc
60
30
18
00
7c
ee
c6
0e
7e
ENDCHAR
STARTCHAR atilde
ENCODING 227
SWIDTH 480 0
DWIDTH 9 0
BBX 7 14 1 0
BITMAP
e6
c6
c6
ee
76
0c
18
30
00
7c
ee
c6
0e
7e
ENDCHAR
STARTCHAR adiaeresis
ENCODING 228
SWIDTH 480 0
DWIDTH 9 0
BBX 7 13 1 0
BITMAP
e6
c6
c6
ee
76
18
3c
66
00
7c
ee
c6
0e
ENDCHAR
STARTCHAR aring
ENCODING 229
SWIDTH 480 0
DWIDTH 9 0
BBX 7 14 1 0
BITMAP
7e
e6
c6
c6
ee
76
32
5a
4c
00
7c
ee
c6
0e
ENDCHAR
STARTCHAR ae
ENCODING 230
SWIDTH 800 0
DWIDTH 15 0
BBX 13 10 1 0
BITMAP
7ee0
c6c0
ee70
6c68
0078
eec0
0e78
e6c0
c6e8
7638
ENDCHAR
STARTCHAR ccedilla
ENCODING 231
SWIDTH 533 0
DWIDTH 10 0
BBX 8 14 1 -4
BITMAP
6c
6c
38
7c
ee
c6
0e
7e
e6
c6
c6
ee
76
7d
ENDCHAR
STARTCHAR egrave
ENCODING 232
SWIDTH 533 0
DWIDTH 10 0
BBX 8 14 1 0
BITMAP
e0
ef
f0
c6
18
0e
18
7f
f8
e6
00
c6
00
c7
ENDCHAR
STARTCHAR eacute
ENCODING 233
SWIDTH 533 0
DWIDTH 10 0
BBX 8 14 1 0
BITMAP
18
ef
f8
75
e0
3e
7f
63
c0
c0
c0
c0
63
7f
ENDCHAR
STARTCHAR ecircumflex
ENCODING 234
SWIDTH 533 0
DWIDTH 10 0
BBX 8 14 1 0
BITMAP
3e
38
0c
6c
78
60
30
18
00
3c
7e
c3
c3
ff
ENDCHAR
STARTCHAR ediaeresis
ENCODING 235
SWIDTH 533 0
DWIDTH 10 0
BBX 8 13 1 0
BITMAP
c0
c0
e3
7f
3c
06
0c
18
00
3c
7e
c3
c3
ENDCHAR
STARTCHAR igrave
ENCODING 236
SWIDTH 213 0
DWIDTH 4 0
BBX 4 14 0 0
BITMAP
f0
c0
c0
e0
70
30
10
30
60
00
30
70
c0
c0
ENDCHAR
STARTCHAR iacute
ENCODING 237
SWIDTH 213 0
DWIDTH 4 0
BBX 4 14 0 0
BITMAP
f0
c0
c0
e0
70
30
30
30
00
30
70
c0
c0
f0
ENDCHAR
STARTCHAR icircumflex
ENCODING 238
SWIDTH 213 0
DWIDTH 4 0
BBX 6 14 -1 0
BITMAP
c0
c0
e0
7c
3c
c0
60
30
00
60
60
60
60
60
ENDCHAR
STARTCHAR idiaeresis
ENCODING 239
SWIDTH 213 0
DWIDTH 4 0
BBX 5 13 0 0
BITMAP
60
60
60
60
60
30
60
c0
00
60
60
60
60
ENDCHAR
STARTCHAR eth
ENCODING 240
SWIDTH 586 0
DWIDTH 11 0
BBX 9 14 1 0
BITMAP
6000
6000
6000
3000
cc00
3000
3000
3000
3000
3000
d880
0000
6000
6000
ENDCHAR
STARTCHAR ntilde
ENCODING 241
SWIDTH 533 0
DWIDTH 10 0
BBX 8 14 1 0
BITMAP
60
60
60
60
60
60
00
36
00
38
00
4c
00
3e
ENDCHAR
STARTCHAR ograve
ENCODING 242
SWIDTH 586 0
DWIDTH 11 0
BBX 9 14 1 0
BITMAP
0000
0000
0080
8080
8080
8080
8000
0000
0000
0000
5a00
0080
df80
c380
ENDCHAR
STARTCHAR oacute
ENCODING 243
SWIDTH 586 0
DWIDTH 11 0
BBX 9 14 1 0
BITMAP
c380
c380
c300
0000
0000
0000
0000
0000
0000
0080
8080
8080
8080
8000
ENDCHAR
STARTCHAR ocircumflex
ENCODING 244
SWIDTH 586 0
DWIDTH 11 0
BBX 9 14 1 0
BITMAP
0000
0000
0000
0000
0000
0000
0000
0000
0000
0080
8080
8080
8080
8000
ENDCHAR
STARTCHAR otilde
ENCODING 245
SWIDTH 586 0
DWIDTH 11 0
BBX 9 14 1 0
BITMAP
0000
0000
0000
0000
0000
0000
0000
0000
0000
0080
8080
8080
8080
8000
ENDCHAR
STARTCHAR odiaeresis
ENCODING 246
SWIDTH 586 0
DWIDTH 11 0
BBX 9 13 1 0
BITMAP
0000
0000
0000
0000
0000
0000
0000
0000
0000
0080
8080
8080
8080
ENDCHAR
STARTCHAR division
ENCODING 247
SWIDTH 533 0
DWIDTH 10 0
BBX 8 8 1 1
BITMAP
80
63
00
7f
00
3e
00
36
ENDCHAR
STARTCHAR oslash
ENCODING 248
SWIDTH 586 0
DWIDTH 11 0
BBX 11 10 0 0
BITMAP
0020
0000
0020
0060
0060
00c0
80c0
80c0
80c0
8060
ENDCHAR
STARTCHAR ugrave
ENCODING 249
SWIDTH 533 0
DWIDTH 10 0
BBX 8 14 1 0
BITMAP
00
7f
00
3e
00
18
18
00
ff
ff
00
18
18
0e
ENDCHAR
STARTCHAR uacute
ENCODING 250
SWIDTH 533 0
DWIDTH 10 0
BBX 8 14 1 0
BITMAP
60
3f
c0
31
80
63
c0
66
c0
6c
c0
78
c0
31
ENDCHAR
STARTCHAR ucircumflex
ENCODING 251
SWIDTH 533 0
DWIDTH 10 0
BBX 8 14 1 0
BITMAP
80
7f
80
ce
00
30
18
0c
00
c3
c3
c3
c3
c3
ENDCHAR
STARTCHAR udiaeresis
ENCODING 252
SWIDTH 533 0
DWIDTH 10 0
BBX 8 13 1 0
BITMAP
c3
c3
c7
fb
73
06
0c
18
00
c3
c3
c3
c3
ENDCHAR
STARTCHAR yacute
ENCODING 253
SWIDTH 533 0
DWIDTH 10 0
BBX 8 18 1 -4
BITMAP
c3
c3
c3
c7
fb
73
18
3c
66
00
c3
c3
c3
c3
c3
c3
c3
c7
ENDCHAR
STARTCHAR thorn
ENCODING 254
SWIDTH 586 0
DWIDTH 11 0
BBX 9 18 1 -4
BITMAP
fb00
6600
0080
c380
c380
c380
c780
7300
0c00
0080
c380
6600
6600
3c00
1800
1800
7080
0080
ENDCHAR
STARTCHAR ydiaeresis
ENCODING 255
SWIDTH 533 0
DWIDTH 10 0
BBX 8 17 1 -4
BITMAP
00
c0
00
c0
00
de
00
ff
00
e3
00
c1
80
c1
80
c1
80
ENDCHAR
ENDFONT
